<svg xmlns="http://www.w3.org/2000/svg" viewBox="0 0 64 64"><g id="Layer_7" data-name="Layer 7"><path d="M51.81,7.56H12.19a4.64,4.64,0,0,0-4.63,4.63V51.81a4.64,4.64,0,0,0,4.63,4.63H51.81a4.64,4.64,0,0,0,4.63-4.63V12.19A4.64,4.64,0,0,0,51.81,7.56Zm2.63,44.25a2.63,2.63,0,0,1-2.63,2.63H12.19a2.63,2.63,0,0,1-2.63-2.63V12.19a2.63,2.63,0,0,1,2.63-2.63H51.81a2.63,2.63,0,0,1,2.63,2.63Z"/><circle cx="32" cy="32.38" r="4.25"/><circle cx="18.44" cy="32.38" r="4.25"/><circle cx="45.56" cy="32.38" r="4.25"/><circle cx="32" cy="18.88" r="4.25"/><circle cx="18.44" cy="18.88" r="4.25"/><circle cx="45.56" cy="18.88" r="4.25"/><circle cx="32" cy="45.13" r="4.25"/><circle cx="18.44" cy="45.13" r="4.25"/><circle cx="45.56" cy="45.13" r="4.25"/></g></svg>